<mxfile host="app.diagrams.net" modified="2020-09-07T20:14:20.711Z" agent="5.0 (Windows NT 10.0; Win64; x64) AppleWebKit/537.36 (KHTML, like Gecko) Chrome/85.0.4183.83 Safari/537.36 Edg/85.0.564.44" etag="3JwxuEuSytpMPgFXJgoU" version="13.6.6" type="github">
  <diagram id="prtHgNgQTEPvFCAcTncT" name="Page-1">
    <mxGraphModel dx="2630" dy="1505" grid="0" gridSize="10" guides="1" tooltips="1" connect="1" arrows="1" fold="1" page="1" pageScale="1" pageWidth="4681" pageHeight="3300" math="0" shadow="0">
      <root>
        <mxCell id="0" />
        <mxCell id="1" parent="0" />
        <mxCell id="dNxyNK7c78bLwvsdeMH5-11" value="Actor Hierarchy" style="swimlane;html=1;startSize=26;horizontal=1;containerType=tree;glass=0;autosize=1;shadow=0;resizeWidth=1;resizeHeight=1;resizable=1;fillColor=#dae8fc;strokeColor=#6c8ebf;" parent="1" vertex="1">
          <mxGeometry x="4" y="320" width="2582" height="1053" as="geometry" />
        </mxCell>
        <mxCell id="yNW7wvVj0RcZNOnP4LPE-27" style="edgeStyle=orthogonalEdgeStyle;rounded=0;orthogonalLoop=1;jettySize=auto;html=1;exitX=0.5;exitY=1;exitDx=0;exitDy=0;entryX=0.431;entryY=-0.001;entryDx=0;entryDy=0;entryPerimeter=0;" edge="1" parent="dNxyNK7c78bLwvsdeMH5-11" source="dNxyNK7c78bLwvsdeMH5-12">
          <mxGeometry relative="1" as="geometry">
            <mxPoint x="189.92000000000007" y="677.3700000000003" as="targetPoint" />
            <Array as="points">
              <mxPoint x="1293" y="577.5" />
              <mxPoint x="190" y="577.5" />
            </Array>
          </mxGeometry>
        </mxCell>
        <mxCell id="yNW7wvVj0RcZNOnP4LPE-31" style="edgeStyle=orthogonalEdgeStyle;rounded=0;orthogonalLoop=1;jettySize=auto;html=1;exitX=0.5;exitY=1;exitDx=0;exitDy=0;entryX=0.5;entryY=0;entryDx=0;entryDy=0;" edge="1" parent="dNxyNK7c78bLwvsdeMH5-11" source="dNxyNK7c78bLwvsdeMH5-12" target="yNW7wvVj0RcZNOnP4LPE-30">
          <mxGeometry relative="1" as="geometry" />
        </mxCell>
        <mxCell id="yNW7wvVj0RcZNOnP4LPE-32" style="edgeStyle=orthogonalEdgeStyle;rounded=0;orthogonalLoop=1;jettySize=auto;html=1;exitX=0.5;exitY=1;exitDx=0;exitDy=0;entryX=0.5;entryY=0;entryDx=0;entryDy=0;" edge="1" parent="dNxyNK7c78bLwvsdeMH5-11" source="dNxyNK7c78bLwvsdeMH5-12" target="yNW7wvVj0RcZNOnP4LPE-23">
          <mxGeometry relative="1" as="geometry" />
        </mxCell>
        <mxCell id="yNW7wvVj0RcZNOnP4LPE-33" style="edgeStyle=orthogonalEdgeStyle;rounded=0;orthogonalLoop=1;jettySize=auto;html=1;exitX=0.5;exitY=1;exitDx=0;exitDy=0;entryX=0.5;entryY=0;entryDx=0;entryDy=0;" edge="1" parent="dNxyNK7c78bLwvsdeMH5-11" source="dNxyNK7c78bLwvsdeMH5-12" target="yNW7wvVj0RcZNOnP4LPE-17">
          <mxGeometry relative="1" as="geometry" />
        </mxCell>
        <mxCell id="yNW7wvVj0RcZNOnP4LPE-34" style="edgeStyle=orthogonalEdgeStyle;rounded=0;orthogonalLoop=1;jettySize=auto;html=1;exitX=0.5;exitY=1;exitDx=0;exitDy=0;entryX=0.5;entryY=0;entryDx=0;entryDy=0;" edge="1" parent="dNxyNK7c78bLwvsdeMH5-11" source="dNxyNK7c78bLwvsdeMH5-12" target="yNW7wvVj0RcZNOnP4LPE-21">
          <mxGeometry relative="1" as="geometry" />
        </mxCell>
        <mxCell id="yNW7wvVj0RcZNOnP4LPE-35" style="edgeStyle=orthogonalEdgeStyle;rounded=0;orthogonalLoop=1;jettySize=auto;html=1;exitX=0.5;exitY=1;exitDx=0;exitDy=0;" edge="1" parent="dNxyNK7c78bLwvsdeMH5-11" source="dNxyNK7c78bLwvsdeMH5-12" target="yNW7wvVj0RcZNOnP4LPE-22">
          <mxGeometry relative="1" as="geometry" />
        </mxCell>
        <UserObject label="Root Actor: Dan&lt;br&gt;-Receive Jira Tasks&lt;br&gt;-Architect Critical Antenna Tasks&lt;br&gt;-Execute Critical Antenna Tasks&lt;br&gt;-Delegate Antenna Sub Tasks&lt;br&gt;-Review Antenna Sub Tasks&lt;br&gt;-Release Antenna Tasks&lt;br&gt;-Distribute Specialized Tasks correctly&lt;br&gt;-Manage Administrative Tasks&lt;br&gt;-Maintain Diner&lt;br&gt;-Bust Some Dance Moves" name="Evan Miller" position="CFO" location="Office 1" email="me@example.com" placeholders="1" id="dNxyNK7c78bLwvsdeMH5-12">
          <mxCell style="label;image=https://cdn3.iconfinder.com/data/icons/user-avatars-1/512/users-9-2-128.png;whiteSpace=wrap;html=1;rounded=0;glass=0;treeMoving=1;treeFolding=1;resizeWidth=1;resizeHeight=1;" parent="dNxyNK7c78bLwvsdeMH5-11" vertex="1">
            <mxGeometry x="1148" y="227.5" width="290" height="250" as="geometry" />
          </mxCell>
        </UserObject>
        <mxCell id="dNxyNK7c78bLwvsdeMH5-17" value="" style="endArrow=blockThin;endFill=1;fontSize=11;edgeStyle=elbowEdgeStyle;elbow=vertical;rounded=0;" parent="dNxyNK7c78bLwvsdeMH5-11" source="dNxyNK7c78bLwvsdeMH5-12" target="dNxyNK7c78bLwvsdeMH5-18" edge="1">
          <mxGeometry relative="1" as="geometry" />
        </mxCell>
        <UserObject label="Nested Actor: DJ (Test Module Gatekeeper)&lt;br&gt;-Architect Test Module Tasks&lt;br&gt;-Execute Larger Test Module Tasks&lt;br&gt;-Delegate Test Module Sub Tasks&lt;br&gt;-Review Test Module Tasks&lt;br&gt;-Release Test Module Task&lt;br&gt;-Train on Test Module Updates&lt;br&gt;--Also Answer a billion questions" name="Ron Donovan" position="System Admin" location="Office 3" email="me@example.com" placeholders="1" id="dNxyNK7c78bLwvsdeMH5-18">
          <mxCell style="label;image=https://cdn3.iconfinder.com/data/icons/user-avatars-1/512/users-2-128.png;whiteSpace=wrap;html=1;rounded=0;glass=0;resizeHeight=1;resizeWidth=1;fillColor=#dae8fc;strokeColor=#6c8ebf;" parent="dNxyNK7c78bLwvsdeMH5-11" vertex="1">
            <mxGeometry x="412" y="677.5" width="322" height="130" as="geometry" />
          </mxCell>
        </UserObject>
        <mxCell id="yNW7wvVj0RcZNOnP4LPE-8" style="edgeStyle=orthogonalEdgeStyle;rounded=0;orthogonalLoop=1;jettySize=auto;html=1;exitX=0.5;exitY=1;exitDx=0;exitDy=0;entryX=0.5;entryY=0;entryDx=0;entryDy=0;" edge="1" parent="dNxyNK7c78bLwvsdeMH5-11" source="yNW7wvVj0RcZNOnP4LPE-7" target="dNxyNK7c78bLwvsdeMH5-12">
          <mxGeometry relative="1" as="geometry" />
        </mxCell>
        <mxCell id="yNW7wvVj0RcZNOnP4LPE-7" value="Launch Root Actor&lt;br&gt;(ATE Supervisor)&lt;br&gt;(Dan Gets to work)" style="ellipse;whiteSpace=wrap;html=1;aspect=fixed;shadow=0;strokeColor=#82b366;fillColor=#d5e8d4;" vertex="1" parent="dNxyNK7c78bLwvsdeMH5-11">
          <mxGeometry x="1223.5" y="49.5" width="139" height="139" as="geometry" />
        </mxCell>
        <mxCell id="yNW7wvVj0RcZNOnP4LPE-45" style="edgeStyle=orthogonalEdgeStyle;rounded=0;orthogonalLoop=1;jettySize=auto;html=1;exitX=0.5;exitY=1;exitDx=0;exitDy=0;entryX=0.5;entryY=0;entryDx=0;entryDy=0;" edge="1" parent="dNxyNK7c78bLwvsdeMH5-11" source="yNW7wvVj0RcZNOnP4LPE-15" target="yNW7wvVj0RcZNOnP4LPE-44">
          <mxGeometry relative="1" as="geometry" />
        </mxCell>
        <UserObject label="Nested Actor: Wade (RF)&lt;br&gt;-Architect RF Tasks&lt;br&gt;-Execute Large RF Tasks&lt;br&gt;-Delegate RF Sub Tasks&lt;br&gt;-Review RF Tasks&lt;br&gt;-Release RF Task&lt;br&gt;-Train on RF Updates&lt;br&gt;-Don&#39;t Even Have AC (can you even believe this guy?)" name="Ron Donovan" position="System Admin" location="Office 3" email="me@example.com" placeholders="1" id="yNW7wvVj0RcZNOnP4LPE-15">
          <mxCell style="label;image=https://cdn3.iconfinder.com/data/icons/user-avatars-1/512/users-2-128.png;whiteSpace=wrap;html=1;rounded=0;glass=0;resizeHeight=0;resizeWidth=0;resizable=1;fillColor=#f8cecc;strokeColor=#b85450;" vertex="1" parent="dNxyNK7c78bLwvsdeMH5-11">
            <mxGeometry x="53" y="673.5" width="320" height="130" as="geometry" />
          </mxCell>
        </UserObject>
        <UserObject label="Nested Actor: Jon Marsh (External Gatekeeper)&lt;br&gt;-Architect External Tasks&lt;br&gt;-Execute Baseline Tasks&lt;br&gt;-Delegate Baseline Tasks&lt;br&gt;-Review Baseline Tasks&lt;br&gt;-Release Baseline Task&lt;br&gt;-Train on Baseline Update&lt;br&gt;-Code Like Lightning" name="Ron Donovan" position="System Admin" location="Office 3" email="me@example.com" placeholders="1" id="yNW7wvVj0RcZNOnP4LPE-21">
          <mxCell style="label;image=https://cdn3.iconfinder.com/data/icons/user-avatars-1/512/users-2-128.png;whiteSpace=wrap;html=1;rounded=0;glass=0;resizeHeight=0;resizeWidth=0;resizable=1;fillColor=#b0e3e6;strokeColor=#0e8088;" vertex="1" parent="dNxyNK7c78bLwvsdeMH5-11">
            <mxGeometry x="1844" y="677.5" width="338" height="140" as="geometry" />
          </mxCell>
        </UserObject>
        <mxCell id="yNW7wvVj0RcZNOnP4LPE-40" style="edgeStyle=orthogonalEdgeStyle;rounded=0;orthogonalLoop=1;jettySize=auto;html=1;exitX=0.5;exitY=1;exitDx=0;exitDy=0;entryX=0.5;entryY=0;entryDx=0;entryDy=0;" edge="1" parent="dNxyNK7c78bLwvsdeMH5-11" source="yNW7wvVj0RcZNOnP4LPE-22" target="yNW7wvVj0RcZNOnP4LPE-39">
          <mxGeometry relative="1" as="geometry" />
        </mxCell>
        <UserObject label="Nested Actor: Jeff&amp;nbsp; &amp;amp; Colt?(Legacy/Tragon Gatekeeper)&lt;br&gt;-Architect Complex Legacy/Tragon Tasks&lt;br&gt;-Execute Complex Legacy/Tragon Tasks&lt;br&gt;-Delegate Legacy/Tragon Sub Tasks&lt;br&gt;-Review Legacy/Tragon Tasks&lt;br&gt;-Release Legacy/Tragon Task&lt;br&gt;-Train on Legacy/Tragon Update&lt;br&gt;-Know the Dark Secrets of the Past" name="Ron Donovan" position="System Admin" location="Office 3" email="me@example.com" placeholders="1" id="yNW7wvVj0RcZNOnP4LPE-22">
          <mxCell style="label;image=https://cdn3.iconfinder.com/data/icons/user-avatars-1/512/users-2-128.png;whiteSpace=wrap;html=1;rounded=0;glass=0;resizeHeight=1;resizeWidth=1;resizable=1;fillColor=#fff2cc;strokeColor=#d6b656;" vertex="1" parent="dNxyNK7c78bLwvsdeMH5-11">
            <mxGeometry x="2212" y="677.5" width="322" height="150" as="geometry" />
          </mxCell>
        </UserObject>
        <UserObject label="Nested Actor: Adam (Baseline Gatekeeper)&lt;br&gt;-Architect Baseline Tasks&lt;br&gt;-Execute Critical Baseline Tasks&lt;br&gt;-Delegate Baseline Sub Tasks&lt;br&gt;-Review Baseline Tasks&lt;br&gt;-Release Baseline Task&lt;br&gt;-Train on Baseline Update&lt;br&gt;-Golf Like Beast" name="Ron Donovan" position="System Admin" location="Office 3" email="me@example.com" placeholders="1" id="yNW7wvVj0RcZNOnP4LPE-23">
          <mxCell style="label;image=https://cdn3.iconfinder.com/data/icons/user-avatars-1/512/users-2-128.png;whiteSpace=wrap;html=1;rounded=0;glass=0;resizeHeight=0;resizeWidth=0;resizable=1;gradientColor=#b3b3b3;fillColor=#f5f5f5;strokeColor=#666666;" vertex="1" parent="dNxyNK7c78bLwvsdeMH5-11">
            <mxGeometry x="1132" y="677.5" width="322" height="120" as="geometry" />
          </mxCell>
        </UserObject>
        <mxCell id="yNW7wvVj0RcZNOnP4LPE-41" style="edgeStyle=orthogonalEdgeStyle;rounded=0;orthogonalLoop=1;jettySize=auto;html=1;exitX=0.5;exitY=1;exitDx=0;exitDy=0;entryX=0.5;entryY=0;entryDx=0;entryDy=0;" edge="1" parent="dNxyNK7c78bLwvsdeMH5-11" source="yNW7wvVj0RcZNOnP4LPE-17" target="yNW7wvVj0RcZNOnP4LPE-38">
          <mxGeometry relative="1" as="geometry" />
        </mxCell>
        <UserObject label="Nested Actor: Dave (HAL Gatekeeper)&lt;br&gt;-Architect Critical HAL Tasks&lt;br&gt;-Execute Critical HALTasks&lt;br&gt;-Delegate HAL sub Tasks&lt;br&gt;-Review HAL Tasks&lt;br&gt;-Release HAL Tasks&lt;br&gt;-Train on HAL Updates&lt;br&gt;-Answer a billion questions&lt;br&gt;" name="Ron Donovan" position="System Admin" location="Office 3" email="me@example.com" placeholders="1" id="yNW7wvVj0RcZNOnP4LPE-17">
          <mxCell style="label;image=https://cdn3.iconfinder.com/data/icons/user-avatars-1/512/users-2-128.png;whiteSpace=wrap;html=1;rounded=0;glass=0;resizeHeight=1;resizeWidth=1;fillColor=#d0cee2;strokeColor=#56517e;" vertex="1" parent="dNxyNK7c78bLwvsdeMH5-11">
            <mxGeometry x="1492" y="677.5" width="322" height="140" as="geometry" />
          </mxCell>
        </UserObject>
        <mxCell id="yNW7wvVj0RcZNOnP4LPE-43" style="edgeStyle=orthogonalEdgeStyle;rounded=0;orthogonalLoop=1;jettySize=auto;html=1;exitX=0.5;exitY=1;exitDx=0;exitDy=0;" edge="1" parent="dNxyNK7c78bLwvsdeMH5-11" source="yNW7wvVj0RcZNOnP4LPE-30" target="yNW7wvVj0RcZNOnP4LPE-42">
          <mxGeometry relative="1" as="geometry" />
        </mxCell>
        <UserObject label="Nested Actor: Brian (Util Lib Gatekeeper)&lt;br&gt;-Architect Util Lib Tasks&lt;br&gt;-Execute Critical Util Lib Tasks&lt;br&gt;-Delegate Util Lib Sub Tasks&lt;br&gt;-Review Util Lib Tasks&lt;br&gt;-Release Util Lib Tasks&lt;br&gt;-Train on Util Lib Update&lt;br&gt;-Be an involuntary MPM ninja" name="Ron Donovan" position="System Admin" location="Office 3" email="me@example.com" placeholders="1" id="yNW7wvVj0RcZNOnP4LPE-30">
          <mxCell style="label;image=https://cdn3.iconfinder.com/data/icons/user-avatars-1/512/users-2-128.png;whiteSpace=wrap;html=1;rounded=0;glass=0;resizeHeight=1;resizeWidth=1;fillColor=#d5e8d4;strokeColor=#82b366;gradientColor=#97d077;" vertex="1" parent="dNxyNK7c78bLwvsdeMH5-11">
            <mxGeometry x="772" y="677.5" width="322" height="120" as="geometry" />
          </mxCell>
        </UserObject>
        <UserObject label="Nested Actor: Chad Green (Hal Subtask Manager)&lt;br&gt;-Architect Critical HAL Tasks&lt;br&gt;-Execute Critical HALTasks&lt;br&gt;-Delegate HAL sub Tasks&lt;br&gt;-Review HAL Tasks&lt;br&gt;-Release HAL Tasks&lt;br&gt;-Train on HAL Updates&lt;br&gt;-Answer a billion questions" name="Ron Donovan" position="System Admin" location="Office 3" email="me@example.com" placeholders="1" id="yNW7wvVj0RcZNOnP4LPE-38">
          <mxCell style="label;image=https://cdn3.iconfinder.com/data/icons/user-avatars-1/512/users-2-128.png;whiteSpace=wrap;html=1;rounded=0;glass=0;resizeHeight=1;resizeWidth=1;strokeColor=#56517e;fillColor=none;strokeWidth=5;" vertex="1" parent="dNxyNK7c78bLwvsdeMH5-11">
            <mxGeometry x="1482.5" y="841.5" width="341" height="140" as="geometry" />
          </mxCell>
        </UserObject>
        <UserObject label="Nested Actor: Kenton Tragon (Subtask manager)&lt;br&gt;-Analyze Requirements&lt;br&gt;-Clarify With STEES&lt;br&gt;-Complete Tragon Sub Task&lt;br&gt;-Tell Colt/Ryan It&#39;s done" name="Ron Donovan" position="System Admin" location="Office 3" email="me@example.com" placeholders="1" id="yNW7wvVj0RcZNOnP4LPE-39">
          <mxCell style="label;image=https://cdn3.iconfinder.com/data/icons/user-avatars-1/512/users-2-128.png;whiteSpace=wrap;html=1;rounded=0;glass=0;resizeHeight=1;resizeWidth=1;resizable=1;strokeColor=#d6b656;fillColor=none;strokeWidth=5;" vertex="1" parent="dNxyNK7c78bLwvsdeMH5-11">
            <mxGeometry x="2212" y="853.5" width="317" height="150" as="geometry" />
          </mxCell>
        </UserObject>
        <UserObject label="Nested Actor: Anyone Who hates themselves (MPM Subtask Manager)&lt;br&gt;-Review MPM&lt;br&gt;-Experience SUB VI inception vertigo&lt;br&gt;-Document&lt;br&gt;-Repeat&lt;br&gt;-Notify Brian it&#39;s done" name="Ron Donovan" position="System Admin" location="Office 3" email="me@example.com" placeholders="1" id="yNW7wvVj0RcZNOnP4LPE-42">
          <mxCell style="label;image=https://cdn3.iconfinder.com/data/icons/user-avatars-1/512/users-2-128.png;whiteSpace=wrap;html=1;rounded=0;glass=0;resizeHeight=1;resizeWidth=1;strokeColor=#82b366;gradientColor=#97d077;fillColor=none;strokeWidth=6;" vertex="1" parent="dNxyNK7c78bLwvsdeMH5-11">
            <mxGeometry x="675" y="841.5" width="516" height="120" as="geometry" />
          </mxCell>
        </UserObject>
        <UserObject label="Nested Actor: John Palsky&lt;br&gt;-Analyze RF Sub Task&lt;br&gt;-Complete RF Sub Task&lt;br&gt;-Report RF Subtask Complete&lt;br&gt;-Build a sentient House/Van" name="Ron Donovan" position="System Admin" location="Office 3" email="me@example.com" placeholders="1" id="yNW7wvVj0RcZNOnP4LPE-44">
          <mxCell style="label;image=https://cdn3.iconfinder.com/data/icons/user-avatars-1/512/users-2-128.png;whiteSpace=wrap;html=1;rounded=0;glass=0;resizeHeight=0;resizeWidth=0;resizable=1;strokeColor=#b85450;gradientColor=#ea6b66;strokeWidth=5;fillColor=none;" vertex="1" parent="dNxyNK7c78bLwvsdeMH5-11">
            <mxGeometry x="48" y="831.5" width="320" height="130" as="geometry" />
          </mxCell>
        </UserObject>
      </root>
    </mxGraphModel>
  </diagram>
</mxfile>
